# xmcd
#
# Track frame offsets:
#	150
#	10842
#	20279
#	30670
#	41171
#	50423
#	59133
#	69189
#	80125
#	90570
#	99464
#	108662
#	118268
#	129481
#	139977
#	149703
#	160711
#	171581
#	180737
#	189348
#
# Disc length: 2680 seconds
#
# Revision: 0
# Processed by: cddbd v1.5.2PL0 Copyright (c) Steve Scherf et al.
# Submitted via: EZCDAudioConverter 2.0.3.1
#
DISCID=240a7614
DTITLE=Country and Western Nuggets Cd 5
DYEAR=1900
DGENRE=
TTITLE0=Miller Darnell - Royal Flush
TTITLE1=Grimsley Ken - Why Don't You Love Me
TTITLE2=Owens Buck - Come Back To Me
TTITLE3=McDonald Skeets - Make Room For The Blues
TTITLE4=Shepard Jean - Jeopardy
TTITLE5=Belew Carl - My Baby's Not Here
TTITLE6=Stewart Wynn - One More Memory
TTITLE7=Miller Dick - Make Room For The Blues
TTITLE8=Carter Bill - Strangers Shake Hands With A Fool
TTITLE9=McCormick Brothers - Big Eyes
TTITLE10=Williams Red - Waiting For You
TTITLE11=Young Faron - Honey Stop
TTITLE12=Barlow Jack - Walk With Me Baby
TTITLE13=McDonald Skeets - Heartbreaking Mama
TTITLE14=Pierce Webb - There's More Pretty Girls Than One
TTITLE15=Harrell Bill - Tragic Highway
TTITLE16=Reed Jerry - Mister Whizz
TTITLE17=DeVorzon Barry - Hey Little Darlin'
TTITLE18=Reeves Del - Baby I Love You
TTITLE19=Husky Ferlin - Black Sheep
EXTD=
EXTT0=
EXTT1=
EXTT2=
EXTT3=
EXTT4=
EXTT5=
EXTT6=
EXTT7=
EXTT8=
EXTT9=
EXTT10=
EXTT11=
EXTT12=
EXTT13=
EXTT14=
EXTT15=
EXTT16=
EXTT17=
EXTT18=
EXTT19=
PLAYORDER=
